<svg xmlns="http://www.w3.org/2000/svg" width="180" height="20" viewBox="0 0 180 20">
  <g id="グループ_9" data-name="グループ 9" transform="translate(-0.974 -0.271)">
    <path id="パス_1" data-name="パス 1" d="M.974,16.153V.271H11.862V2.958H4.181V6.717h6.63V9.4H4.181v6.75H.974Z" transform="translate(0)" fill="#333"/>
    <path id="パス_2" data-name="パス 2" d="M27.406,17.51V15.868a4.372,4.372,0,0,1-1.652,1.384,4.818,4.818,0,0,1-2.161.506,4.394,4.394,0,0,1-2.08-.485A2.925,2.925,0,0,1,20.18,15.91a5.832,5.832,0,0,1-.412-2.426V6.545h3.044v5.039a13.367,13.367,0,0,0,.167,2.834,1.546,1.546,0,0,0,.613.826,1.946,1.946,0,0,0,1.127.305,2.479,2.479,0,0,0,1.4-.408,2.1,2.1,0,0,0,.845-1.011,11.192,11.192,0,0,0,.227-2.958V6.545h3.044V17.51Z" transform="translate(-5.682 -1.897)" fill="#333"/>
    <path id="パス_3" data-name="パス 3" d="M42.3,17.385H39.259V6.42h2.828V7.979a4.751,4.751,0,0,1,1.305-1.456,2.491,2.491,0,0,1,1.317-.35,4.01,4.01,0,0,1,2,.547l-.943,2.53a2.761,2.761,0,0,0-1.43-.475,1.747,1.747,0,0,0-1.084.336,2.266,2.266,0,0,0-.7,1.213A16.475,16.475,0,0,0,42.3,14v3.386Z" transform="translate(-11.574 -1.784)" fill="#333"/>
    <path id="パス_4" data-name="パス 4" d="M63.073,17.385H60.028v-5.6a8.274,8.274,0,0,0-.195-2.3,1.627,1.627,0,0,0-.634-.811,1.881,1.881,0,0,0-1.056-.29,2.529,2.529,0,0,0-1.419.413A2.093,2.093,0,0,0,55.863,9.9a9.057,9.057,0,0,0-.232,2.519v4.966H52.586V6.42h2.828V8.03a4.681,4.681,0,0,1,3.792-1.858,4.773,4.773,0,0,1,1.842.346,3.1,3.1,0,0,1,1.263.883,3.15,3.15,0,0,1,.6,1.218,8.673,8.673,0,0,1,.168,1.952v6.813Z" transform="translate(-15.612 -1.784)" fill="#333"/>
    <path id="パス_5" data-name="パス 5" d="M72.2,3.088V.271h3.044V3.088H72.2Zm0,13.065V4.648h3.044V16.153Z" transform="translate(-21.545)" fill="#333"/>
    <path id="パス_6" data-name="パス 6" d="M86.564,4.784V7.212h-2.08v4.637a11.555,11.555,0,0,0,.059,1.642.668.668,0,0,0,.271.384.852.852,0,0,0,.514.152,3.955,3.955,0,0,0,1.224-.292l.26,2.362a6.036,6.036,0,0,1-2.4.455,3.812,3.812,0,0,1-1.484-.276,2.165,2.165,0,0,1-.97-.714,2.81,2.81,0,0,1-.428-1.186,14.623,14.623,0,0,1-.1-2.145V7.214h-1.4V4.784h1.4V2.5L84.483.721V4.784Z" transform="translate(-23.913 -0.136)" fill="#333"/>
    <path id="パス_7" data-name="パス 7" d="M100.762,17.51V15.868a4.372,4.372,0,0,1-1.652,1.384,4.818,4.818,0,0,1-2.161.506,4.394,4.394,0,0,1-2.08-.485,2.925,2.925,0,0,1-1.333-1.363,5.832,5.832,0,0,1-.412-2.426V6.545h3.044v5.039a13.367,13.367,0,0,0,.167,2.834,1.546,1.546,0,0,0,.613.826,1.946,1.946,0,0,0,1.127.305,2.479,2.479,0,0,0,1.4-.408,2.1,2.1,0,0,0,.845-1.011,11.192,11.192,0,0,0,.227-2.958V6.545h3.044V17.51Z" transform="translate(-27.874 -1.897)" fill="#333"/>
    <path id="パス_8" data-name="パス 8" d="M115.66,17.385h-3.045V6.42h2.828V7.979a4.751,4.751,0,0,1,1.305-1.456,2.491,2.491,0,0,1,1.317-.35,4.012,4.012,0,0,1,2,.547l-.943,2.53a2.761,2.761,0,0,0-1.43-.475,1.747,1.747,0,0,0-1.084.336,2.266,2.266,0,0,0-.7,1.213A16.476,16.476,0,0,0,115.66,14Z" transform="translate(-33.769 -1.784)" fill="#333"/>
    <path id="パス_9" data-name="パス 9" d="M132.251,13.9l3.034.486a4.769,4.769,0,0,1-1.846,2.424,5.621,5.621,0,0,1-3.158.832,5.253,5.253,0,0,1-4.442-1.871A6.08,6.08,0,0,1,124.7,11.99a5.889,5.889,0,0,1,1.5-4.274,5.037,5.037,0,0,1,3.781-1.545,5.231,5.231,0,0,1,4.053,1.617,6.925,6.925,0,0,1,1.418,4.956h-7.627a2.86,2.86,0,0,0,.737,2.011,2.36,2.36,0,0,0,1.755.718,1.923,1.923,0,0,0,1.2-.373A2.281,2.281,0,0,0,132.251,13.9Zm.173-2.935a2.717,2.717,0,0,0-.683-1.918,2.269,2.269,0,0,0-3.228.037,2.6,2.6,0,0,0-.639,1.881h4.55Z" transform="translate(-37.426 -1.784)" fill="#333"/>
    <path id="パス_10" data-name="パス 10" d="M154.1.271h5.862a11.436,11.436,0,0,1,3.022.3,5.318,5.318,0,0,1,2.395,1.463A6.915,6.915,0,0,1,166.9,4.611a11.743,11.743,0,0,1,.52,3.754,10.459,10.459,0,0,1-.488,3.38,7.01,7.01,0,0,1-1.7,2.805,5.658,5.658,0,0,1-2.254,1.268,9.734,9.734,0,0,1-2.838.335H154.1V.271Zm3.207,2.687v10.52H159.7a8.687,8.687,0,0,0,1.939-.152,2.955,2.955,0,0,0,1.294-.661,3.359,3.359,0,0,0,.839-1.533,10.367,10.367,0,0,0,.326-2.909,9.486,9.486,0,0,0-.326-2.828,3.626,3.626,0,0,0-.91-1.538,3.043,3.043,0,0,0-1.484-.747,14.529,14.529,0,0,0-2.632-.152h-1.44Z" transform="translate(-46.319)" fill="#333"/>
    <path id="パス_11" data-name="パス 11" d="M184.126,13.9l3.034.486a4.769,4.769,0,0,1-1.846,2.424,5.62,5.62,0,0,1-3.158.832,5.254,5.254,0,0,1-4.442-1.871,6.084,6.084,0,0,1-1.137-3.783,5.886,5.886,0,0,1,1.5-4.274,5.034,5.034,0,0,1,3.78-1.545A5.23,5.23,0,0,1,185.9,7.788a6.925,6.925,0,0,1,1.418,4.956H179.7a2.857,2.857,0,0,0,.737,2.011,2.359,2.359,0,0,0,1.755.718,1.919,1.919,0,0,0,1.2-.373A2.276,2.276,0,0,0,184.126,13.9Zm.174-2.935a2.717,2.717,0,0,0-.683-1.918,2.269,2.269,0,0,0-3.228.037,2.6,2.6,0,0,0-.639,1.881h4.55Z" transform="translate(-53.117 -1.784)" fill="#333"/>
    <path id="パス_12" data-name="パス 12" d="M194.792,14.265l3.055-.445a2.118,2.118,0,0,0,.79,1.287,2.77,2.77,0,0,0,1.67.439,3.129,3.129,0,0,0,1.777-.413.908.908,0,0,0,.4-.775.743.743,0,0,0-.217-.548,2.512,2.512,0,0,0-1.019-.383,16.893,16.893,0,0,1-4.668-1.416,2.794,2.794,0,0,1-1.365-2.47,2.992,2.992,0,0,1,1.181-2.4,5.7,5.7,0,0,1,3.662-.971,6.632,6.632,0,0,1,3.51.734,3.762,3.762,0,0,1,1.582,2.171l-2.871.507a1.7,1.7,0,0,0-.7-.983,2.655,2.655,0,0,0-1.468-.341,3.448,3.448,0,0,0-1.724.32.683.683,0,0,0-.346.59.632.632,0,0,0,.3.527,11.808,11.808,0,0,0,2.844.817,8.7,8.7,0,0,1,3.4,1.292,2.627,2.627,0,0,1,.954,2.161,3.26,3.26,0,0,1-1.322,2.593,6.047,6.047,0,0,1-3.911,1.086,6.652,6.652,0,0,1-3.722-.909A4.193,4.193,0,0,1,194.792,14.265Z" transform="translate(-58.627 -1.784)" fill="#333"/>
    <path id="パス_13" data-name="パス 13" d="M214.81,3.088V.271h3.045V3.088H214.81Zm0,13.065V4.648h3.045V16.153Z" transform="translate(-64.687)" fill="#333"/>
    <path id="パス_14" data-name="パス 14" d="M223.864,18.7l3.477.422a1.179,1.179,0,0,0,.4.834,2.286,2.286,0,0,0,1.365.325,3.546,3.546,0,0,0,1.788-.358,1.477,1.477,0,0,0,.606-.769,4.625,4.625,0,0,0,.14-1.4V16.073a4.119,4.119,0,0,1-3.445,1.863,4.24,4.24,0,0,1-3.673-1.961,6.655,6.655,0,0,1-1.061-3.856A6.343,6.343,0,0,1,224.854,7.7a4.493,4.493,0,0,1,3.461-1.527,4.213,4.213,0,0,1,3.521,1.875V6.432h2.849V16.757a10.317,10.317,0,0,1-.335,3.044,3.757,3.757,0,0,1-.943,1.582,4.174,4.174,0,0,1-1.619.9,8.525,8.525,0,0,1-2.563.325,6.629,6.629,0,0,1-4.149-1,3.143,3.143,0,0,1-1.224-2.541C223.853,18.963,223.856,18.84,223.864,18.7Zm2.719-6.75a4.149,4.149,0,0,0,.71,2.681,2.194,2.194,0,0,0,1.75.851,2.422,2.422,0,0,0,1.886-.872,3.8,3.8,0,0,0,.769-2.584,4.025,4.025,0,0,0-.737-2.654A2.34,2.34,0,0,0,229.1,8.5a2.247,2.247,0,0,0-1.8.851A3.986,3.986,0,0,0,226.583,11.946Z" transform="translate(-67.303 -2.336)" fill="#333"/>
    <path id="パス_15" data-name="パス 15" d="M254.482,17.385h-3.044v-5.6a8.3,8.3,0,0,0-.195-2.3,1.619,1.619,0,0,0-.634-.811,1.883,1.883,0,0,0-1.056-.29,2.535,2.535,0,0,0-1.42.413,2.1,2.1,0,0,0-.861,1.094,9.05,9.05,0,0,0-.233,2.519v4.966H244V6.42h2.828V8.03a4.683,4.683,0,0,1,3.793-1.858,4.77,4.77,0,0,1,1.841.346,3.1,3.1,0,0,1,1.264.883,3.151,3.151,0,0,1,.6,1.218,8.681,8.681,0,0,1,.167,1.952v6.813Z" transform="translate(-73.51 -1.784)" fill="#333"/>
  </g>
</svg>
